<svg width="234" height="31" viewBox="0 0 234 31" fill="none" xmlns="http://www.w3.org/2000/svg">
<g clip-path="url(#clip0_163_948)">
<ellipse cx="15" cy="15.3333" rx="15" ry="15.3333" fill="#1DC6D1"/>
<path d="M16.824 10.776V16.512C16.824 17.4 16.572 18.084 16.068 18.564C15.572 19.044 14.9 19.284 14.052 19.284C13.164 19.284 12.452 19.032 11.916 18.528C11.38 18.024 11.112 17.308 11.112 16.38H13.152C13.152 16.732 13.224 17 13.368 17.184C13.512 17.36 13.72 17.448 13.992 17.448C14.24 17.448 14.432 17.368 14.568 17.208C14.704 17.048 14.772 16.816 14.772 16.512V10.776H16.824Z" fill="white"/>
<path d="M53.425 14.85C54.4583 15.2333 55.2583 15.7917 55.825 16.525C56.3917 17.2583 56.675 18.1417 56.675 19.175C56.675 20.7083 56.0417 21.9 54.775 22.75C53.5083 23.5833 51.675 24 49.275 24H39.425V6.5H48.775C51.1083 6.5 52.8667 6.91667 54.05 7.75C55.25 8.58333 55.85 9.69167 55.85 11.075C55.85 11.8917 55.6417 12.625 55.225 13.275C54.825 13.925 54.225 14.45 53.425 14.85ZM45.225 10.625V13.225H47.975C49.2583 13.225 49.9 12.7917 49.9 11.925C49.9 11.0583 49.2583 10.625 47.975 10.625H45.225ZM48.775 19.875C50.075 19.875 50.725 19.4167 50.725 18.5C50.725 17.5833 50.075 17.125 48.775 17.125H45.225V19.875H48.775ZM65.8859 18.2L64.5609 19.675V24H58.7609V6.5H64.5609V12.85L70.3109 6.5H76.7359L69.7359 14.2L77.0859 24H70.2609L65.8859 18.2ZM88.9232 20.95H82.2732L81.0982 24H75.0982L82.7482 6.5H88.5482L96.1982 24H90.0982L88.9232 20.95ZM87.2982 16.7L85.5982 12.3L83.8982 16.7H87.2982ZM114.39 6.5V24H109.54L102.89 16.05V24H97.1398V6.5H101.99L108.64 14.45V6.5H114.39ZM129.158 20.95H122.508L121.333 24H115.333L122.983 6.5H128.783L136.433 24H130.333L129.158 20.95ZM127.533 16.7L125.833 12.3L124.133 16.7H127.533ZM164.848 6.5L159.248 24H152.923L150.098 14.65L147.123 24H140.798L135.198 6.5H141.273L144.323 16.45L147.548 6.5H152.973L156.023 16.575L159.248 6.5H164.848ZM177.449 20.95H170.799L169.624 24H163.624L171.274 6.5H177.074L184.724 24H178.624L177.449 20.95ZM175.824 16.7L174.124 12.3L172.424 16.7H175.824ZM192.19 24.4C190.74 24.4 189.324 24.2417 187.94 23.925C186.574 23.5917 185.449 23.15 184.565 22.6L186.465 18.3C187.299 18.7833 188.232 19.175 189.265 19.475C190.299 19.7583 191.29 19.9 192.24 19.9C193.057 19.9 193.64 19.825 193.99 19.675C194.34 19.5083 194.515 19.2667 194.515 18.95C194.515 18.5833 194.282 18.3083 193.815 18.125C193.365 17.9417 192.615 17.7417 191.565 17.525C190.215 17.2417 189.09 16.9417 188.19 16.625C187.29 16.2917 186.507 15.7583 185.84 15.025C185.174 14.275 184.84 13.2667 184.84 12C184.84 10.9 185.149 9.9 185.765 9C186.382 8.1 187.299 7.39167 188.515 6.875C189.749 6.35833 191.24 6.1 192.99 6.1C194.19 6.1 195.365 6.23333 196.515 6.5C197.682 6.75 198.707 7.125 199.59 7.625L197.815 11.9C196.099 11.0333 194.474 10.6 192.94 10.6C191.424 10.6 190.665 10.9667 190.665 11.7C190.665 12.05 190.89 12.3167 191.34 12.5C191.79 12.6667 192.532 12.85 193.565 13.05C194.899 13.3 196.024 13.5917 196.94 13.925C197.857 14.2417 198.649 14.7667 199.315 15.5C199.999 16.2333 200.34 17.2333 200.34 18.5C200.34 19.6 200.032 20.6 199.415 21.5C198.799 22.3833 197.874 23.0917 196.64 23.625C195.424 24.1417 193.94 24.4 192.19 24.4ZM205.652 11.075H200.527V6.5H216.677V11.075H211.552V24H205.652V11.075ZM232.759 19.55V24H218.209V6.5H232.434V10.95H224.009V13H231.409V17.25H224.009V19.55H232.759Z" fill="#11BCC7"/>
</g>
<defs>
<clipPath id="clip0_163_948">
<rect width="234" height="30.67" fill="white"/>
</clipPath>
</defs>
</svg>
